<?xml version="1.0" encoding="utf-8"?>
<!-- Generator: Adobe Illustrator 24.1.0, SVG Export Plug-In . SVG Version: 6.00 Build 0)  -->
<svg version="1.1" id="Layer_1" xmlns="http://www.w3.org/2000/svg" xmlns:xlink="http://www.w3.org/1999/xlink" x="0px" y="0px"
	 viewBox="0 0 337.42 311.21" style="enable-background:new 0 0 337.42 311.21;" xml:space="preserve">
<style type="text/css">
	.st0{fill:#DB5C19;}
	.st1{fill:#C3B092;}
	.st2{fill:#E5DFCF;}
	.st3{fill:#5E5546;}
	.st4{fill:#C3BEB8;}
	.st5{fill:#DFD0CD;}
	.st6{fill:#D7D1B7;}
	.st7{fill:#E4DECE;}
	.st8{fill:#8F1D1D;}
	.st9{fill:#E8DEAB;}
	.st10{fill:#5A514C;}
	.st11{fill:#C6DCC7;}
	.st12{fill:#DB5C1A;}
	.st13{clip-path:url(#SVGID_2_);}
	.st14{fill:#C2B091;}
	.st15{clip-path:url(#SVGID_6_);}
</style>
<g>
	<g>
		<path d="M240.77,227.67H96.65V83.55h144.12V227.67z M101.75,222.57h133.93V88.64H101.75V222.57z"/>
	</g>
	<g>
		<g>
			<path d="M93.17,136.34c-23.8,0-43.17-19.36-43.17-43.17S69.36,50,93.17,50s43.17,19.36,43.17,43.17S116.97,136.34,93.17,136.34z
				 M93.17,65.42c-15.3,0-27.75,12.45-27.75,27.75s12.45,27.75,27.75,27.75s27.75-12.45,27.75-27.75S108.47,65.42,93.17,65.42z"/>
		</g>
		<g>
			<path d="M113.21,259.67c-34.85,0-63.21-28.36-63.21-63.21h15.42c0,26.35,21.44,47.79,47.79,47.79S161,222.82,161,196.46V50h15.42
				v146.46C176.42,231.32,148.06,259.67,113.21,259.67z"/>
		</g>
		<path d="M224.21,133.25c-11.83,0-22.9,3.27-32.38,8.95v19.15c8.52-7.86,19.9-12.68,32.38-12.68c26.35,0,47.79,21.44,47.79,47.79
			v64.75h15.42v-64.75C287.42,161.61,259.07,133.25,224.21,133.25z"/>
	</g>
</g>
</svg>
